<svg width="507" height="85" viewBox="0 0 507 85" fill="none" xmlns="http://www.w3.org/2000/svg">
<g clip-path="url(#clip0_40000784_62409)">
<path d="M92.6899 50.6702V50.4302C92.6899 31.3202 106.36 16.2002 125.69 16.2002C148.3 16.2002 158.69 32.7702 158.69 52.0002C158.69 53.4502 158.69 55.1402 158.57 56.7102H114.82C116.64 63.8502 121.82 67.4802 128.97 67.4802C134.41 67.4802 138.77 65.4202 143.48 60.8302L151.48 67.4802C152.115 68.0087 152.629 68.6684 152.986 69.4141C153.342 70.1598 153.533 70.9738 153.546 71.8003C153.558 72.6268 153.391 73.4461 153.057 74.2021C152.723 74.9582 152.229 75.633 151.61 76.1802C145.7 81.4002 137.93 84.6502 127.73 84.6502C107.2 84.6502 92.6899 71.0002 92.6899 50.6702ZM137.19 45.0002C136.35 37.7502 132.11 33.1502 125.83 33.1502C119.83 33.1502 115.67 37.8702 114.46 45.0002H137.19Z" fill="#1B1815"/>
<path d="M369.86 16.2002H388.39C390.301 16.2077 392.16 16.8163 393.706 17.9399C395.251 19.0635 396.404 20.645 397 22.4602L408 55.8902L419 22.4602C419.596 20.6393 420.753 19.0535 422.305 17.9292C423.856 16.805 425.724 16.1998 427.64 16.2002H445.79L418.71 84.6502H397L369.86 16.2002Z" fill="#1B1815"/>
<path d="M239.81 64.2699V63.9999C239.81 50.3399 250.18 43.2599 265.68 43.2599C271.069 43.2644 276.423 44.1286 281.54 45.8199V44.7199C281.54 37.8899 277.27 33.9899 268.36 33.9899C262.116 33.9766 255.933 35.2214 250.18 37.6499L247.56 28.6499C247.253 27.6375 247.151 26.5743 247.258 25.522C247.365 24.4696 247.679 23.4488 248.183 22.5188C248.687 21.5888 249.371 20.768 250.194 20.1039C251.018 19.4398 251.964 18.9456 252.98 18.6499C259.22 16.9154 265.674 16.077 272.15 16.1599C284 16.1999 292 18.9999 297.28 24.2599C302.28 29.1399 304.36 35.9699 304.36 45.2599V83.1799H281.42V76.3499C276.9 81.3499 270.68 84.6499 262.02 84.6499C249.45 84.6499 239.81 77.4499 239.81 64.2699ZM281.81 59.2699V56.2199C278.945 55.0879 275.891 54.5078 272.81 54.5099C266.1 54.5099 262.19 57.8099 262.19 62.6899V62.9299C262.19 67.4499 265.61 70.1299 270.37 70.1299C277 70.1299 281.79 65.8599 281.79 59.2699H281.81Z" fill="#1B1815"/>
<path d="M441.5 64.2696V63.9996C441.5 50.3396 451.87 43.2596 467.36 43.2596C472.749 43.2641 478.103 44.1283 483.22 45.8196V44.7196C483.22 37.9196 479 33.9996 470.05 33.9996C463.806 33.9852 457.622 35.23 451.87 37.6596L449.24 28.6596C448.933 27.6472 448.831 26.584 448.938 25.5316C449.044 24.4792 449.359 23.4585 449.863 22.5285C450.367 21.5985 451.051 20.7777 451.874 20.1136C452.697 19.4495 453.644 18.9553 454.66 18.6596C460.9 16.9257 467.354 16.0873 473.83 16.1696C485.66 16.1696 493.72 18.9796 498.96 24.2296C503.96 29.1096 506.04 35.9396 506.04 45.2296V83.1796H483.1V76.3496C478.59 81.3496 472.37 84.6496 463.7 84.6496C451.14 84.6496 441.5 77.4496 441.5 64.2696ZM483.5 59.2696V56.2196C480.635 55.0867 477.581 54.5065 474.5 54.5096C467.79 54.5096 463.89 57.8096 463.89 62.6896V62.9296C463.89 67.4496 467.3 70.1296 472.06 70.1296C478.71 70.1296 483.47 65.8596 483.47 59.2696H483.5Z" fill="#1B1815"/>
<path d="M308.26 50.6702V50.4302C308.26 31.3202 321.92 16.2002 341.26 16.2002C363.87 16.2002 374.26 32.7702 374.26 52.0002C374.26 53.4502 374.26 55.1402 374.14 56.7102H330.39C332.2 63.8502 337.39 67.4802 344.53 67.4802C349.98 67.4802 354.33 65.4202 359.05 60.8302L367.05 67.4802C367.685 68.0094 368.198 68.6697 368.553 69.4158C368.909 70.1619 369.099 70.9761 369.111 71.8026C369.122 72.6291 368.954 73.4482 368.62 74.2038C368.285 74.9595 367.79 75.6337 367.17 76.1802C361.26 81.4002 353.5 84.6502 343.3 84.6502C322.77 84.6502 308.26 71.0002 308.26 50.6702ZM352.76 45.0002C351.91 37.7502 347.68 33.1502 341.39 33.1502C335.34 33.1502 331.23 37.8702 330.02 45.0002H352.76Z" fill="#1B1815"/>
<path d="M241.48 84.65H218.34C217.125 84.6486 215.929 84.3477 214.858 83.7738C213.787 83.2 212.874 82.3709 212.2 81.36L193.75 53.36C193.748 50.1629 194.903 47.0729 197 44.66C199.085 42.2416 201.957 40.6372 205.11 40.13C208.38 39.59 210.79 38.77 211.84 37.92C212.916 37.034 213.772 35.9115 214.343 34.6401C214.914 33.3687 215.183 31.9826 215.13 30.59V30.35C215.13 23.7 210.3 20.35 202.44 20.35H187.06V77.8C187.06 79.6167 186.338 81.3591 185.054 82.6437C183.769 83.9283 182.027 84.65 180.21 84.65H163.6V0H203.6C216.54 0 225.48 3.39 231.17 9.19C236.17 14.03 238.67 20.56 238.67 28.9V29.14C238.67 42.08 231.77 50.67 221.25 55.14L241.48 84.65Z" fill="#1B1815"/>
<path d="M67.6883 38.396L101.463 0H76.7362C73.1022 0 69.6528 1.59565 67.2917 4.37182L43.4683 33.5446L45.4512 61.7213L51.2987 54.1123L70.2339 78.3322C72.5304 81.7725 76.3949 83.8384 80.5269 83.8384H102.543L67.6883 38.3868V38.396Z" fill="#1B1815"/>
<path d="M22.4324 61.7637V83.1007C22.4324 83.5977 22.8353 84.0007 23.3324 84.0007H44.747C45.2441 84.0007 45.647 83.5977 45.647 83.1007V61.7637H40.1501H22.4324Z" fill="url(#paint0_linear_40000784_62409)"/>
<path d="M67.6887 39.4488C67.6887 38.9518 67.2858 38.5488 66.7887 38.5488H45.4517V44.0458V61.7635H66.7887C67.2858 61.7635 67.6887 61.3606 67.6887 60.8635V39.4488Z" fill="url(#paint1_linear_40000784_62409)"/>
<path d="M45.4517 38.5488H22.2371V61.7635H39.9547H45.4517V44.0458V38.5488Z" fill="url(#paint2_linear_40000784_62409)"/>
<path d="M22.237 38.5488H0.9C0.402944 38.5488 0 38.9518 0 39.4488V60.8635C0 61.3606 0.402943 61.7635 0.899999 61.7635H22.237V38.5488Z" fill="url(#paint3_linear_40000784_62409)"/>
<path d="M44.747 16.377H23.3324C22.8353 16.377 22.4324 16.7799 22.4324 17.277V38.6139H45.647V17.277C45.647 16.7799 45.2441 16.377 44.747 16.377Z" fill="url(#paint4_linear_40000784_62409)"/>
</g>
<defs>
<linearGradient id="paint0_linear_40000784_62409" x1="65.0341" y1="39.0102" x2="15.0723" y2="93.6112" gradientUnits="userSpaceOnUse">
<stop stop-color="#EA001B"/>
<stop offset="1" stop-color="#F69D1B"/>
</linearGradient>
<linearGradient id="paint1_linear_40000784_62409" x1="65.8902" y1="39.9692" x2="15.9283" y2="94.5796" gradientUnits="userSpaceOnUse">
<stop stop-color="#EA001B"/>
<stop offset="1" stop-color="#F69D1B"/>
</linearGradient>
<linearGradient id="paint2_linear_40000784_62409" x1="53.522" y1="28.6524" x2="3.56007" y2="83.2534" gradientUnits="userSpaceOnUse">
<stop stop-color="#EA001B"/>
<stop offset="1" stop-color="#F69D1B"/>
</linearGradient>
<linearGradient id="paint3_linear_40000784_62409" x1="41.1537" y1="17.3356" x2="-8.80823" y2="71.9366" gradientUnits="userSpaceOnUse">
<stop stop-color="#EA001B"/>
<stop offset="1" stop-color="#F69D1B"/>
</linearGradient>
<linearGradient id="paint4_linear_40000784_62409" x1="42.4005" y1="18.3599" x2="-7.57051" y2="72.9701" gradientUnits="userSpaceOnUse">
<stop stop-color="#EA001B"/>
<stop offset="1" stop-color="#F69D1B"/>
</linearGradient>
<clipPath id="clip0_40000784_62409">
<rect width="506.04" height="84.65" fill="white"/>
</clipPath>
</defs>
</svg>
